<svg xmlns="http://www.w3.org/2000/svg" viewBox="0 0 1440 320"><path fill="#f3f4f5" fill-opacity="1" d="M0,256L30,240C60,224,120,192,180,165.3C240,139,300,117,360,138.7C420,160,480,224,540,256C600,288,660,288,720,250.7C780,213,840,139,900,117.3C960,96,1020,128,1080,149.3C1140,171,1200,181,1260,202.7C1320,224,1380,256,1410,272L1440,288L1440,0L1410,0C1380,0,1320,0,1260,0C1200,0,1140,0,1080,0C1020,0,960,0,900,0C840,0,780,0,720,0C660,0,600,0,540,0C480,0,420,0,360,0C300,0,240,0,180,0C120,0,60,0,30,0L0,0Z"/></svg>